<svg xmlns="http://www.w3.org/2000/svg" viewBox="0 0 620 400" role="img" aria-labelledby="title"><title id="title">About our team</title><defs><linearGradient id="g" x1="0" y1="0" x2="1" y2="1"><stop stop-color="#7b2ff7"/><stop offset="1" stop-color="#f107a3"/></linearGradient></defs><rect width="620" height="400" rx="32" fill="#fff"/><circle cx="510" cy="80" r="105" fill="#f3eaff"/><circle cx="90" cy="330" r="120" fill="#fff0f8"/><rect x="85" y="70" width="450" height="260" rx="26" fill="#faf7ff" stroke="#eadfff" stroke-width="3"/><circle cx="205" cy="160" r="48" fill="url(#g)"/><circle cx="310" cy="160" r="48" fill="#d9c8ff"/><circle cx="415" cy="160" r="48" fill="#f7b7df"/><path d="M145 270c12-55 108-55 120 0M250 270c12-55 108-55 120 0M355 270c12-55 108-55 120 0" fill="none" stroke="#7b2ff7" stroke-width="14" stroke-linecap="round"/><path d="M205 126v68M171 160h68" stroke="white" stroke-width="9" stroke-linecap="round"/><path d="M288 146l22 22 35-35" fill="none" stroke="#7b2ff7" stroke-width="9" stroke-linecap="round" stroke-linejoin="round"/></svg>