<svg xmlns="http://www.w3.org/2000/svg" viewBox="0 0 620 400" role="img" aria-labelledby="title"><title id="title">Services and solutions</title><defs><linearGradient id="g" x1="0" y1="0" x2="1" y2="1"><stop stop-color="#7b2ff7"/><stop offset="1" stop-color="#f107a3"/></linearGradient></defs><rect width="620" height="400" rx="32" fill="#fff"/><circle cx="510" cy="80" r="105" fill="#f3eaff"/><circle cx="90" cy="330" r="120" fill="#fff0f8"/><circle cx="310" cy="200" r="112" fill="#f5efff" stroke="#d9c8ff" stroke-width="5"/><path d="M310 115l22 32 38-2-3 38 32 22-32 22 3 38-38-2-22 32-22-32-38 2 3-38-32-22 32-22-3-38 38 2z" fill="url(#g)"/><circle cx="310" cy="205" r="38" fill="white"/><circle cx="310" cy="205" r="15" fill="#7b2ff7"/><rect x="85" y="295" width="120" height="22" rx="11" fill="#d9c8ff"/><rect x="415" y="295" width="120" height="22" rx="11" fill="#f7b7df"/></svg>