<svg xmlns="http://www.w3.org/2000/svg" viewBox="0 0 900 620" role="img" aria-labelledby="t d">
<title id="t">Vision illustration</title><desc id="d">Modern abstract illustration for My Shoopee.</desc>
<defs><linearGradient id="g" x1="0" y1="0" x2="1" y2="1"><stop offset="0" stop-color="#f107a3"/><stop offset="1" stop-color="#7b2ff7"/></linearGradient><linearGradient id="bg" x1="0" y1="0" x2="1" y2="1"><stop offset="0" stop-color="#f7f1ff"/><stop offset="1" stop-color="#fff0fa"/></linearGradient><filter id="s" x="-30%" y="-30%" width="160%" height="160%"><feDropShadow dx="0" dy="20" stdDeviation="22" flood-opacity=".15"/></filter></defs>
<rect width="900" height="620" rx="42" fill="url(#bg)"/><circle cx="730" cy="120" r="90" fill="#f107a3" opacity=".08"/><circle cx="150" cy="520" r="120" fill="#7b2ff7" opacity=".07"/><g filter="url(#s)"><rect x="160" y="115" width="580" height="390" rx="34" fill="white"/><circle cx="450" cy="305" r="120" fill="url(#g)" opacity=".12"/><path d="M300 305h300M450 205v200" stroke="#7b2ff7" stroke-width="7" opacity=".18"/><path d="M450 215l22 67 70 2-55 42 19 68-56-39-56 39 19-68-55-42 70-2z" fill="url(#g)"/><rect x="245" y="150" width="110" height="18" rx="9" fill="#eee7ff"/><rect x="545" y="150" width="110" height="18" rx="9" fill="#ffe3f2"/></g></svg>