<svg xmlns="http://www.w3.org/2000/svg" viewBox="0 0 900 620" role="img" aria-labelledby="t d">
<title id="t">Contact channels illustration</title><desc id="d">Modern abstract illustration for My Shoopee.</desc>
<defs><linearGradient id="g" x1="0" y1="0" x2="1" y2="1"><stop offset="0" stop-color="#00a6a6"/><stop offset="1" stop-color="#7b2ff7"/></linearGradient><linearGradient id="bg" x1="0" y1="0" x2="1" y2="1"><stop offset="0" stop-color="#f7f1ff"/><stop offset="1" stop-color="#fff0fa"/></linearGradient><filter id="s" x="-30%" y="-30%" width="160%" height="160%"><feDropShadow dx="0" dy="20" stdDeviation="22" flood-opacity=".15"/></filter></defs>
<rect width="900" height="620" rx="42" fill="url(#bg)"/><circle cx="730" cy="120" r="90" fill="#00a6a6" opacity=".08"/><circle cx="150" cy="520" r="120" fill="#7b2ff7" opacity=".07"/><g filter="url(#s)"><rect x="140" y="115" width="620" height="390" rx="30" fill="white"/><rect x="195" y="180" width="210" height="220" rx="25" fill="#f0ebff"/><rect x="445" y="180" width="210" height="220" rx="25" fill="#e9fbf8"/><circle cx="300" cy="255" r="38" fill="url(#g)"/><path d="M275 255h50M300 230v50" stroke="white" stroke-width="10" stroke-linecap="round"/><circle cx="550" cy="255" r="38" fill="#00a67d"/><path d="M530 255h40M550 235v40" stroke="white" stroke-width="10" stroke-linecap="round"/><rect x="240" y="325" width="120" height="18" rx="9" fill="#dcd3ef"/><rect x="490" y="325" width="120" height="18" rx="9" fill="#ccefe7"/></g></svg>