<svg xmlns="http://www.w3.org/2000/svg" viewBox="0 0 900 620" role="img" aria-labelledby="t d">
<title id="t">Technical Support</title><desc id="d">Modern abstract illustration for My Shoopee.</desc>
<defs><linearGradient id="g" x1="0" y1="0" x2="1" y2="1"><stop offset="0" stop-color="#7b2ff7"/><stop offset="1" stop-color="#00b894"/></linearGradient><linearGradient id="bg" x1="0" y1="0" x2="1" y2="1"><stop offset="0" stop-color="#f7f1ff"/><stop offset="1" stop-color="#fff0fa"/></linearGradient><filter id="s" x="-30%" y="-30%" width="160%" height="160%"><feDropShadow dx="0" dy="20" stdDeviation="22" flood-opacity=".15"/></filter></defs>
<rect width="900" height="620" rx="42" fill="url(#bg)"/><circle cx="730" cy="120" r="90" fill="#7b2ff7" opacity=".08"/><circle cx="150" cy="520" r="120" fill="#00b894" opacity=".07"/><g filter="url(#s)"><rect x="140" y="120" width="620" height="390" rx="30" fill="white"/><circle cx="450" cy="300" r="115" fill="#f0ebff"/><path d="M365 300a85 85 0 01170 0v70a35 35 0 01-35 35h-20v-75h55M365 300v70a35 35 0 0035 35h20v-75h-55" fill="none" stroke="#7b2ff7" stroke-width="16" stroke-linecap="round" stroke-linejoin="round"/><path d="M330 245c55-80 185-80 240 0" fill="none" stroke="#00b894" stroke-width="18" stroke-linecap="round"/><circle cx="675" cy="185" r="35" fill="#e6fff8"/><path d="M660 185l10 10 20-22" fill="none" stroke="#00a67d" stroke-width="9" stroke-linecap="round"/></g></svg>